<svg width="142" height="44" viewBox="0 0 142 44" fill="none" xmlns="http://www.w3.org/2000/svg">
<path d="M136.715 0.580688H5.14742C2.59992 0.580688 0.53476 2.64585 0.53476 5.19335V38.7399C0.53476 41.2874 2.59992 43.3526 5.14742 43.3526H136.715C139.263 43.3526 141.328 41.2874 141.328 38.7399V5.19335C141.328 2.64585 139.263 0.580688 136.715 0.580688Z" fill="white" stroke="#E3E3E3" stroke-width="0.838665"/>
<path d="M22.4305 21.3929L11.3931 33.2398C11.3931 33.242 11.3952 33.2442 11.3952 33.2464C11.7333 34.5327 12.8949 35.4794 14.2754 35.4794C14.8259 35.4794 15.3438 35.3282 15.7881 35.0653L15.8228 35.0433L28.2473 27.7941L22.4305 21.3929Z" fill="#D8432B"/>
<path d="M33.5959 19.3769L33.5851 19.3703L28.2213 16.2256L22.1792 21.6626L28.243 27.7943L33.5786 24.6802C34.5148 24.1696 35.1498 23.1725 35.1498 22.022C35.1498 20.8802 34.5235 19.8897 33.5959 19.3769Z" fill="#FBC81D"/>
<path d="M11.3934 10.7578C11.3262 11.0054 11.2915 11.264 11.2915 11.5335V32.464C11.2915 32.7336 11.3262 32.9922 11.3934 33.2398L22.8101 21.6975L11.3934 10.7578Z" fill="#3371C1"/>
<path d="M22.5132 21.9984L28.2259 16.2239L15.8166 8.94831C15.3658 8.67438 14.8392 8.5166 14.2757 8.5166C12.8974 8.5166 11.7336 9.46549 11.3955 10.7541V10.7563L22.5132 21.9984Z" fill="#32A472"/>
<path d="M50.1127 11.7716C50.1127 12.6503 49.8548 13.3494 49.3412 13.871C48.756 14.4912 47.9932 14.8023 47.057 14.8023C46.1597 14.8023 45.3947 14.489 44.7684 13.8578C44.1399 13.2289 43.8257 12.4487 43.8257 11.5174C43.8257 10.586 44.1399 9.80587 44.7684 9.17693C45.3969 8.54798 46.1597 8.23242 47.057 8.23242C47.5034 8.23242 47.9282 8.32007 48.3334 8.49539C48.7387 8.6707 49.0638 8.90519 49.3065 9.19884L48.7604 9.75108C48.3486 9.25363 47.7808 9.0038 47.057 9.0038C46.4025 9.0038 45.8368 9.2361 45.3579 9.70287C44.8789 10.1696 44.6405 10.7723 44.6405 11.5174C44.6405 12.2603 44.8789 12.8651 45.3579 13.3319C45.8368 13.7987 46.4025 14.031 47.057 14.031C47.7526 14.031 48.3313 13.7965 48.795 13.3275C49.0963 13.0229 49.2697 12.5977 49.3173 12.0543H47.0591V11.2982H50.0737C50.0975 11.4604 50.1127 11.6182 50.1127 11.7716Z" fill="black"/>
<path d="M54.8912 9.1437H52.0587V11.1379H54.6116V11.894H52.0565V13.8882H54.889V14.6618H51.2568V8.37231H54.889V9.1437" fill="black"/>
<path d="M58.2609 14.6598H57.4612V9.14394H55.7231V8.37036H59.9968V9.14394H58.2588L58.2609 14.6598Z" fill="black"/>
<path d="M63.0918 14.6598V8.37036H63.8915V14.6598H63.0918Z" fill="black"/>
<path d="M67.4347 14.6598H66.6351V9.14394H64.897V8.37036H69.1707V9.14394H67.4326L67.4347 14.6598Z" fill="black"/>
<path d="M73.2928 13.3208C73.7544 13.792 74.3157 14.0286 74.9832 14.0286C75.6485 14.0286 76.2142 13.7941 76.6736 13.3208C77.1352 12.8496 77.365 12.247 77.365 11.515C77.365 10.7831 77.1331 10.1805 76.6736 9.70933C76.2142 9.23817 75.6507 9.0015 74.9832 9.0015C74.3179 9.0015 73.7544 9.23598 73.2928 9.70933C72.8334 10.1805 72.6015 10.7831 72.6015 11.515C72.6015 12.247 72.8334 12.8496 73.2928 13.3208ZM77.2653 13.8489C76.6541 14.4844 75.8934 14.8022 74.9832 14.8022C74.0752 14.8022 73.3145 14.4844 72.7033 13.8489C72.0922 13.2134 71.7866 12.4354 71.7866 11.5172C71.7866 10.599 72.0922 9.8211 72.7033 9.18558C73.3145 8.55006 74.0752 8.2323 74.9832 8.2323C75.8869 8.2323 76.6455 8.55225 77.2609 9.18996C77.8742 9.82767 78.182 10.6034 78.182 11.5172C78.1798 12.4354 77.8742 13.2134 77.2653 13.8489Z" fill="black"/>
<path d="M79.3022 14.6596V8.37012H80.2753L83.2985 13.2636H83.3332L83.2985 12.0518V8.37231H84.0982V14.6618H83.2639L80.1019 9.53159H80.0673L80.1019 10.7435V14.6618L79.3022 14.6596Z" fill="black"/>
<path d="M111.815 32.4816H113.748V19.3768H111.815V32.4816ZM129.239 24.0971L127.02 29.7774H126.952L124.651 24.0949H122.566L126.02 32.0367L124.053 36.4547H126.07L131.389 24.0971H129.239ZM118.266 30.9914C117.633 30.9914 116.749 30.6715 116.749 29.8782C116.749 28.8657 117.85 28.4778 118.799 28.4778C119.649 28.4778 120.05 28.6641 120.566 28.9161C120.418 30.1324 119.385 30.9914 118.266 30.9914ZM118.5 23.8101C117.1 23.8101 115.648 24.4346 115.048 25.8174L116.767 26.5428C117.133 25.8174 117.818 25.5829 118.533 25.5829C119.534 25.5829 120.55 26.19 120.568 27.2681V27.404C120.217 27.2024 119.467 26.8978 118.55 26.8978C116.699 26.8978 114.816 27.9256 114.816 29.8475C114.816 31.6006 116.333 32.7314 118.034 32.7314C119.335 32.7314 120.052 32.1419 120.503 31.4494H120.57V32.4619H122.438V27.4369C122.436 25.1074 120.717 23.8101 118.5 23.8101ZM106.546 25.6925H103.796V21.2H106.546C107.992 21.2 108.813 22.4119 108.813 23.4463C108.813 24.4609 107.992 25.6925 106.546 25.6925ZM106.496 19.3746H101.861V32.4794H103.796V27.5136H106.496C108.642 27.5136 110.748 25.9445 110.748 23.4441C110.748 20.9436 108.64 19.3746 106.496 19.3746ZM81.2204 30.9958C79.8854 30.9958 78.7649 29.865 78.7649 28.3113C78.7649 26.74 79.8832 25.5917 81.2204 25.5917C82.5402 25.5917 83.5761 26.74 83.5761 28.3113C83.5739 29.8628 82.538 30.9958 81.2204 30.9958ZM83.4417 24.8313H83.3745C82.9411 24.3075 82.1046 23.8342 81.0535 23.8342C78.8495 23.8342 76.8275 25.7933 76.8275 28.3091C76.8275 30.8095 78.8495 32.7511 81.0535 32.7511C82.1067 32.7511 82.9411 32.2778 83.3745 31.7387H83.4417V32.3808C83.4417 34.0857 82.5402 34.9996 81.086 34.9996C79.9005 34.9996 79.1659 34.1383 78.8646 33.413L77.1786 34.123C77.664 35.3042 78.9492 36.7571 81.086 36.7571C83.3572 36.7571 85.2773 35.4072 85.2773 32.1134V24.1081H83.4396V24.8313H83.4417ZM86.6145 32.4816H88.552V19.3768H86.6145V32.4816ZM91.4083 28.1579C91.3585 26.4354 92.7281 25.5566 93.7142 25.5566C94.4835 25.5566 95.1337 25.9445 95.3504 26.5033L91.4083 28.1579ZM97.4201 26.6721C97.0516 25.675 95.9334 23.8342 93.6448 23.8342C91.3736 23.8342 89.486 25.6421 89.486 28.2916C89.486 30.792 91.3563 32.7511 93.8616 32.7511C95.8835 32.7511 97.0517 31.502 97.5349 30.7745L96.0309 29.762C95.5303 30.5049 94.8455 30.9958 93.8594 30.9958C92.8733 30.9958 92.1733 30.54 91.7225 29.6437L97.6173 27.1783L97.4201 26.6721ZM50.4485 25.2016V27.0928H54.9237C54.7894 28.1557 54.4404 28.9336 53.9051 29.4749C53.2528 30.1346 52.2342 30.8599 50.4485 30.8599C47.6918 30.8599 45.5376 28.6137 45.5376 25.8284C45.5376 23.0409 47.6918 20.7946 50.4485 20.7946C51.9352 20.7946 53.0209 21.3863 53.8228 22.1467L55.1426 20.8122C54.0243 19.7318 52.5377 18.9034 50.4485 18.9034C46.6732 18.9034 43.5005 22.0109 43.5005 25.8284C43.5005 29.6459 46.6732 32.7533 50.4485 32.7533C52.4856 32.7533 54.0222 32.0784 55.225 30.8117C56.4603 29.5626 56.846 27.8051 56.846 26.3872C56.846 25.9489 56.8135 25.5435 56.7463 25.206H50.4485V25.2016ZM61.9346 30.9958C60.5974 30.9958 59.4466 29.8803 59.4466 28.2937C59.4466 26.6896 60.5996 25.5917 61.9346 25.5917C63.2696 25.5917 64.4225 26.6896 64.4225 28.2937C64.4225 29.8803 63.2717 30.9958 61.9346 30.9958ZM61.9346 23.8342C59.4965 23.8342 57.5092 25.7078 57.5092 28.2916C57.5092 30.8577 59.4965 32.7511 61.9346 32.7511C64.3727 32.7511 66.36 30.8599 66.36 28.2916C66.36 25.7078 64.3727 23.8342 61.9346 23.8342ZM71.5894 30.9958C70.2522 30.9958 69.1015 29.8803 69.1015 28.2937C69.1015 26.6896 70.2544 25.5917 71.5894 25.5917C72.9244 25.5917 74.0773 26.6896 74.0773 28.2937C74.0773 29.8803 72.9265 30.9958 71.5894 30.9958ZM71.5894 23.8342C69.1513 23.8342 67.164 25.7078 67.164 28.2916C67.164 30.8577 69.1513 32.7511 71.5894 32.7511C74.0275 32.7511 76.0148 30.8599 76.0148 28.2916C76.0148 25.7078 74.0275 23.8342 71.5894 23.8342Z" fill="black"/>
</svg>
