<svg width="142" height="44" viewBox="0 0 142 44" fill="none" xmlns="http://www.w3.org/2000/svg">
<path d="M136.761 0.580688H5.19335C2.64585 0.580688 0.580688 2.64585 0.580688 5.19335V38.7399C0.580688 41.2874 2.64585 43.3526 5.19335 43.3526H136.761C139.309 43.3526 141.374 41.2874 141.374 38.7399V5.19335C141.374 2.64585 139.309 0.580688 136.761 0.580688Z" fill="white" stroke="#E3E3E3" stroke-width="0.838665"/>
<path d="M29.026 22.4657C29.0378 21.5507 29.2809 20.6536 29.7326 19.8578C30.1842 19.062 30.8299 18.3933 31.6094 17.9141C31.1142 17.2068 30.4609 16.6248 29.7014 16.2142C28.9419 15.8036 28.0971 15.5758 27.2341 15.5488C25.3933 15.3555 23.6087 16.6503 22.6706 16.6503C21.7144 16.6503 20.2701 15.5679 18.7148 15.5999C17.7089 15.6324 16.7284 15.925 15.8691 16.449C15.0098 16.9731 14.3009 17.7108 13.8115 18.5903C11.6913 22.261 13.2728 27.6556 15.3037 30.6227C16.3198 32.0756 17.5073 33.6985 19.0612 33.641C20.5817 33.5779 21.1496 32.6714 22.985 32.6714C24.8034 32.6714 25.3362 33.641 26.9216 33.6044C28.5532 33.5779 29.5812 32.145 30.5617 30.6784C31.2917 29.6431 31.8535 28.499 32.2262 27.2883C31.2783 26.8873 30.4694 26.2162 29.9003 25.3587C29.3312 24.5011 29.0272 23.4949 29.026 22.4657Z" fill="black"/>
<path d="M26.0312 13.5979C26.9208 12.5299 27.3591 11.1572 27.2529 9.77136C25.8938 9.91411 24.6383 10.5637 23.7367 11.5907C23.2958 12.0924 22.9582 12.6761 22.7431 13.3083C22.5279 13.9406 22.4395 14.6091 22.4829 15.2756C23.1627 15.2826 23.8353 15.1352 24.4499 14.8446C25.0645 14.554 25.6052 14.1277 26.0312 13.5979Z" fill="black"/>
<path d="M48.1661 29.9641H42.9771L41.731 33.6436H39.5332L44.4481 20.0305H46.7315L51.6464 33.6436H49.4111L48.1661 29.9641ZM43.5146 28.2662H47.6276L45.6 22.2947H45.5433L43.5146 28.2662Z" fill="black"/>
<path d="M62.2607 28.6808C62.2607 31.7651 60.6099 33.7466 58.1188 33.7466C57.4877 33.7796 56.8601 33.6343 56.3079 33.3272C55.7556 33.0201 55.3009 32.5637 54.996 32.0102H54.9489V36.9261H52.9116V23.7178H54.8836V25.3685H54.9211C55.24 24.8177 55.7023 24.3637 56.2588 24.0547C56.8153 23.7457 57.4451 23.5934 58.0813 23.6139C60.6003 23.6139 62.2607 25.6051 62.2607 28.6808ZM60.1667 28.6808C60.1667 26.6714 59.1283 25.3503 57.5439 25.3503C55.9873 25.3503 54.9403 26.6992 54.9403 28.6808C54.9403 30.6806 55.9873 32.0198 57.5439 32.0198C59.1283 32.0198 60.1667 30.7084 60.1667 28.6808Z" fill="black"/>
<path d="M73.1845 28.6817C73.1845 31.766 71.5338 33.7475 69.0426 33.7475C68.4116 33.7806 67.784 33.6352 67.2317 33.3281C66.6794 33.021 66.2248 32.5646 65.9198 32.0111H65.8727V36.927H63.8354V23.7187H65.8074V25.3695H65.8449C66.1638 24.8186 66.6261 24.3646 67.1826 24.0556C67.7391 23.7467 68.3689 23.5943 69.0051 23.6149C71.5241 23.6149 73.1845 25.6061 73.1845 28.6817ZM71.0906 28.6817C71.0906 26.6723 70.0521 25.3513 68.4677 25.3513C66.9111 25.3513 65.8642 26.7002 65.8642 28.6817C65.8642 30.6815 66.9111 32.0208 68.4677 32.0208C70.0521 32.0208 71.0906 30.7093 71.0906 28.6817Z" fill="black"/>
<path d="M80.4043 29.8502C80.5553 31.2002 81.8667 32.0865 83.6588 32.0865C85.3759 32.0865 86.6113 31.2001 86.6113 29.9829C86.6113 28.9263 85.8662 28.2936 84.102 27.86L82.3377 27.435C79.838 26.8312 78.6775 25.6622 78.6775 23.7652C78.6775 21.4164 80.7244 19.8031 83.6309 19.8031C86.5074 19.8031 88.4794 21.4164 88.5458 23.7652H86.4892C86.3661 22.4067 85.2431 21.5866 83.602 21.5866C81.9608 21.5866 80.8378 22.4163 80.8378 23.6239C80.8378 24.5863 81.5551 25.1526 83.3097 25.5862L84.8096 25.9544C87.6026 26.615 88.7631 27.7369 88.7631 29.7281C88.7631 32.2749 86.7344 33.87 83.5078 33.87C80.4888 33.87 78.4505 32.3124 78.3188 29.8501L80.4043 29.8502Z" fill="black"/>
<path d="M93.1599 21.3694V23.7181H95.0473V25.3314H93.1599V30.803C93.1599 31.653 93.5378 32.0491 94.3675 32.0491C94.5915 32.0452 94.8152 32.0295 95.0376 32.002V33.6056C94.6646 33.6753 94.2855 33.7069 93.9061 33.6998C91.8967 33.6998 91.113 32.9451 91.113 31.0203V25.3314H89.6699V23.7181H91.113V21.3694H93.1599Z" fill="black"/>
<path d="M96.1406 28.6806C96.1406 25.5579 97.9798 23.5955 100.848 23.5955C103.725 23.5955 105.556 25.5578 105.556 28.6806C105.556 31.812 103.735 33.7657 100.848 33.7657C97.9616 33.7657 96.1406 31.812 96.1406 28.6806ZM103.48 28.6806C103.48 26.5385 102.499 25.2742 100.848 25.2742C99.197 25.2742 98.2164 26.5481 98.2164 28.6806C98.2164 30.8313 99.197 32.086 100.848 32.086C102.499 32.086 103.48 30.8313 103.48 28.6806Z" fill="black"/>
<path d="M107.235 23.7187H109.178V25.408H109.226C109.357 24.8804 109.666 24.4141 110.101 24.0876C110.536 23.761 111.07 23.5941 111.613 23.6148C111.848 23.614 112.082 23.6395 112.311 23.6909V25.5964C112.014 25.5059 111.705 25.4643 111.395 25.4733C111.1 25.4613 110.804 25.5135 110.531 25.6263C110.257 25.7391 110.01 25.9098 109.809 26.1267C109.607 26.3437 109.455 26.6017 109.362 26.883C109.27 27.1644 109.239 27.4625 109.273 27.7568V33.6437H107.235V23.7187Z" fill="black"/>
<path d="M121.704 30.7275C121.43 32.5292 119.675 33.7657 117.43 33.7657C114.543 33.7657 112.751 31.8312 112.751 28.7277C112.751 25.6146 114.553 23.5955 117.345 23.5955C120.091 23.5955 121.817 25.4818 121.817 28.4911V29.1891H114.807V29.3122C114.775 29.6775 114.821 30.0455 114.942 30.3917C115.062 30.738 115.256 31.0545 115.508 31.3204C115.761 31.5863 116.067 31.7954 116.406 31.9339C116.746 32.0723 117.111 32.137 117.477 32.1235C117.959 32.1686 118.442 32.0571 118.855 31.8056C119.268 31.5541 119.589 31.1759 119.769 30.7275H121.704ZM114.817 27.7653H119.779C119.797 27.4369 119.748 27.1082 119.633 26.7999C119.518 26.4917 119.341 26.2104 119.112 25.9739C118.884 25.7374 118.609 25.5507 118.304 25.4255C118 25.3002 117.674 25.2393 117.345 25.2463C117.013 25.2443 116.684 25.3081 116.377 25.4339C116.07 25.5597 115.791 25.745 115.556 25.9792C115.321 26.2134 115.135 26.4918 115.008 26.7984C114.881 27.1049 114.816 27.4336 114.817 27.7653Z" fill="black"/>
<path d="M43.2592 9.78391C43.6863 9.75326 44.1149 9.81779 44.514 9.97283C44.9132 10.1278 45.2729 10.3695 45.5674 10.6805C45.8618 10.9914 46.0836 11.3638 46.2167 11.7708C46.3497 12.1778 46.3908 12.6092 46.337 13.034C46.337 15.1237 45.2076 16.3249 43.2592 16.3249H40.8965V9.78391H43.2592ZM41.9124 15.3999H43.1457C43.4509 15.4181 43.7563 15.3681 44.0397 15.2534C44.3232 15.1387 44.5774 14.9623 44.7841 14.7369C44.9907 14.5116 45.1445 14.243 45.2342 13.9507C45.324 13.6585 45.3474 13.3498 45.3028 13.0474C45.3442 12.7461 45.3184 12.4394 45.2272 12.1493C45.1361 11.8591 44.982 11.5927 44.7758 11.3692C44.5696 11.1456 44.3166 10.9704 44.0347 10.8562C43.7529 10.7419 43.4493 10.6914 43.1457 10.7082H41.9124V15.3999Z" fill="black"/>
<path d="M47.4842 13.8552C47.4531 13.5308 47.4902 13.2035 47.5931 12.8942C47.696 12.585 47.8623 12.3007 48.0815 12.0596C48.3007 11.8184 48.5679 11.6257 48.8659 11.4939C49.1639 11.362 49.4862 11.2939 49.8121 11.2939C50.1379 11.2939 50.4602 11.362 50.7582 11.4939C51.0562 11.6257 51.3234 11.8184 51.5426 12.0596C51.7618 12.3007 51.9281 12.585 52.031 12.8942C52.1339 13.2035 52.171 13.5308 52.14 13.8552C52.1716 14.1799 52.1349 14.5076 52.0323 14.8174C51.9297 15.1271 51.7634 15.4119 51.5442 15.6535C51.325 15.8951 51.0576 16.0882 50.7593 16.2204C50.461 16.3525 50.1383 16.4208 49.8121 16.4208C49.4858 16.4208 49.1631 16.3525 48.8648 16.2204C48.5665 16.0882 48.2991 15.8951 48.0799 15.6535C47.8607 15.4119 47.6944 15.1271 47.5918 14.8174C47.4892 14.5076 47.4525 14.1799 47.4842 13.8552ZM51.1379 13.8552C51.1379 12.7852 50.6572 12.1594 49.8137 12.1594C48.9669 12.1594 48.4905 12.7852 48.4905 13.8552C48.4905 14.9337 48.9669 15.5547 49.8137 15.5547C50.6573 15.5546 51.1379 14.9295 51.1379 13.8552Z" fill="black"/>
<path d="M58.3292 16.3259H57.3186L56.2984 12.6903H56.2213L55.2054 16.3259H54.2044L52.8438 11.3896H53.8319L54.7161 15.1563H54.7889L55.8038 11.3896H56.7384L57.7533 15.1563H57.8303L58.7103 11.3896H59.6845L58.3292 16.3259Z" fill="black"/>
<path d="M60.8286 11.3884H61.7664V12.1726H61.8392C61.9627 11.8909 62.171 11.6548 62.435 11.4972C62.6991 11.3395 63.0058 11.2682 63.3123 11.2931C63.5525 11.2751 63.7936 11.3113 64.0179 11.3991C64.2422 11.4869 64.4439 11.624 64.608 11.8003C64.772 11.9767 64.8944 12.1877 64.9658 12.4177C65.0373 12.6477 65.0561 12.8908 65.0209 13.1291V16.3246H64.0467V13.3737C64.0467 12.5805 63.702 12.186 62.9815 12.186C62.8184 12.1784 62.6556 12.2061 62.5043 12.2673C62.3529 12.3285 62.2166 12.4217 62.1047 12.5405C61.9927 12.6594 61.9078 12.801 61.8557 12.9557C61.8036 13.1104 61.7855 13.2745 61.8028 13.4369V16.3247H60.8286V11.3884Z" fill="black"/>
<path d="M66.5732 9.46228H67.5474V16.3256H66.5732V9.46228Z" fill="black"/>
<path d="M68.9021 13.8553C68.8711 13.5308 68.9082 13.2035 69.0111 12.8943C69.114 12.5851 69.2804 12.3008 69.4996 12.0596C69.7188 11.8184 69.986 11.6258 70.284 11.4939C70.5821 11.362 70.9044 11.2939 71.2303 11.2939C71.5562 11.2939 71.8785 11.362 72.1765 11.4939C72.4745 11.6258 72.7417 11.8184 72.9609 12.0596C73.1801 12.3008 73.3465 12.5851 73.4494 12.8943C73.5523 13.2035 73.5894 13.5308 73.5584 13.8553C73.59 14.18 73.5533 14.5078 73.4507 14.8175C73.348 15.1272 73.1818 15.412 72.9625 15.6536C72.7432 15.8952 72.4759 16.0883 72.1775 16.2204C71.8792 16.3526 71.5565 16.4208 71.2303 16.4208C70.904 16.4208 70.5813 16.3526 70.283 16.2204C69.9847 16.0883 69.7173 15.8952 69.498 15.6536C69.2788 15.412 69.1125 15.1272 69.0099 14.8175C68.9072 14.5078 68.8705 14.18 68.9021 13.8553ZM72.5559 13.8553C72.5559 12.7852 72.0752 12.1595 71.2316 12.1595C70.3848 12.1595 69.9084 12.7852 69.9084 13.8553C69.9084 14.9338 70.3848 15.5547 71.2316 15.5547C72.0752 15.5547 72.5559 14.9295 72.5559 13.8553Z" fill="black"/>
<path d="M74.5835 14.9295C74.5835 14.0409 75.2451 13.5287 76.4195 13.4559L77.7566 13.3788V12.9527C77.7566 12.4314 77.4119 12.137 76.746 12.137C76.2022 12.137 75.8253 12.3366 75.7172 12.6856H74.7741C74.8736 11.8378 75.6712 11.2939 76.791 11.2939C78.0285 11.2939 78.7265 11.91 78.7265 12.9527V16.3255H77.7887V15.6318H77.7116C77.5552 15.8806 77.3355 16.0835 77.075 16.2196C76.8145 16.3558 76.5225 16.4204 76.2289 16.4068C76.0217 16.4284 75.8123 16.4063 75.6141 16.3419C75.4159 16.2776 75.2335 16.1724 75.0784 16.0332C74.9234 15.894 74.7993 15.7239 74.714 15.5338C74.6288 15.3437 74.5843 15.1378 74.5835 14.9295ZM77.7566 14.5077V14.095L76.5512 14.1721C75.8714 14.2176 75.563 14.4488 75.563 14.884C75.563 15.3283 75.9484 15.5868 76.4784 15.5868C76.6337 15.6025 76.7905 15.5868 76.9396 15.5407C77.0887 15.4946 77.227 15.4189 77.3463 15.3182C77.4655 15.2175 77.5633 15.0939 77.6338 14.9547C77.7043 14.8154 77.746 14.6634 77.7566 14.5077Z" fill="black"/>
<path d="M80.0068 13.8553C80.0068 12.2955 80.8087 11.3074 82.0559 11.3074C82.3644 11.2932 82.6705 11.3671 82.9386 11.5204C83.2066 11.6738 83.4255 11.9003 83.5696 12.1734H83.6424V9.46228H84.6166V16.3256H83.6831V15.5457H83.606C83.4508 15.817 83.2243 16.0406 82.951 16.1925C82.6778 16.3443 82.3682 16.4184 82.0559 16.4069C80.8001 16.407 80.0068 15.4188 80.0068 13.8553ZM81.0132 13.8553C81.0132 14.9023 81.5067 15.5323 82.3321 15.5323C83.1532 15.5323 83.6606 14.8932 83.6606 13.8596C83.6606 12.8308 83.1479 12.1826 82.3321 12.1826C81.512 12.1826 81.0132 12.8169 81.0132 13.8553Z" fill="black"/>
<path d="M88.6472 13.8552C88.6162 13.5308 88.6533 13.2035 88.7562 12.8942C88.8591 12.585 89.0254 12.3007 89.2446 12.0596C89.4638 11.8184 89.731 11.6257 90.029 11.4939C90.327 11.362 90.6493 11.2939 90.9751 11.2939C91.301 11.2939 91.6233 11.362 91.9213 11.4939C92.2193 11.6257 92.4865 11.8184 92.7057 12.0596C92.9248 12.3007 93.0912 12.585 93.1941 12.8942C93.297 13.2035 93.3341 13.5308 93.303 13.8552C93.3347 14.1799 93.298 14.5076 93.1954 14.8174C93.0928 15.1271 92.9265 15.4119 92.7073 15.6535C92.488 15.8951 92.2207 16.0882 91.9224 16.2204C91.6241 16.3525 91.3014 16.4208 90.9751 16.4208C90.6489 16.4208 90.3262 16.3525 90.0279 16.2204C89.7296 16.0882 89.4622 15.8951 89.243 15.6535C89.0237 15.4119 88.8575 15.1271 88.7549 14.8174C88.6523 14.5076 88.6156 14.1799 88.6472 13.8552ZM92.301 13.8552C92.301 12.7852 91.8203 12.1594 90.9767 12.1594C90.1299 12.1594 89.6536 12.7852 89.6536 13.8552C89.6536 14.9337 90.13 15.5547 90.9767 15.5547C91.8203 15.5546 92.301 14.9295 92.301 13.8552Z" fill="black"/>
<path d="M94.6108 11.3884H95.5486V12.1726H95.6214C95.7449 11.8909 95.9532 11.6548 96.2173 11.4972C96.4813 11.3395 96.788 11.2682 97.0945 11.2931C97.3347 11.2751 97.5759 11.3113 97.8001 11.3991C98.0244 11.4869 98.2261 11.624 98.3902 11.8003C98.5543 11.9767 98.6766 12.1877 98.7481 12.4177C98.8195 12.6477 98.8383 12.8908 98.8031 13.1291V16.3246H97.8289V13.3737C97.8289 12.5805 97.4842 12.186 96.7637 12.186C96.6006 12.1784 96.4378 12.2061 96.2865 12.2673C96.1352 12.3285 95.9988 12.4217 95.8869 12.5405C95.7749 12.6594 95.69 12.801 95.6379 12.9557C95.5858 13.1104 95.5678 13.2745 95.585 13.4369V16.3247H94.6108V11.3884Z" fill="black"/>
<path d="M104.307 10.16V11.4115H105.377V12.2321H104.307V14.7703C104.307 15.2874 104.52 15.5138 105.005 15.5138C105.129 15.5134 105.253 15.5059 105.377 15.4914V16.3028C105.202 16.3341 105.025 16.3508 104.847 16.3526C103.763 16.3526 103.332 15.9715 103.332 15.0198V12.232H102.548V11.4115H103.332V10.16H104.307Z" fill="black"/>
<path d="M106.708 9.46228H107.673V12.1826H107.75C107.88 11.8983 108.094 11.6609 108.363 11.5026C108.632 11.3444 108.944 11.273 109.255 11.2983C109.494 11.2853 109.733 11.3252 109.955 11.4151C110.177 11.5051 110.376 11.6428 110.538 11.8186C110.701 11.9944 110.822 12.2038 110.894 12.432C110.966 12.6601 110.987 12.9014 110.955 13.1386V16.3256H109.98V13.3789C109.98 12.5904 109.613 12.1911 108.925 12.1911C108.757 12.1774 108.589 12.2004 108.431 12.2586C108.274 12.3167 108.131 12.4086 108.012 12.5278C107.894 12.647 107.803 12.7907 107.746 12.9487C107.689 13.1067 107.667 13.2752 107.682 13.4426V16.3256H106.708V9.46228Z" fill="black"/>
<path d="M116.636 14.9929C116.504 15.4441 116.217 15.8343 115.826 16.0954C115.435 16.3565 114.965 16.4717 114.497 16.421C114.172 16.4296 113.849 16.3673 113.55 16.2385C113.251 16.1097 112.984 15.9174 112.767 15.6749C112.55 15.4325 112.389 15.1458 112.294 14.8347C112.199 14.5235 112.172 14.1954 112.217 13.8732C112.174 13.5499 112.2 13.2211 112.295 12.909C112.39 12.597 112.551 12.3089 112.766 12.0644C112.982 11.8198 113.248 11.6245 113.546 11.4916C113.844 11.3588 114.167 11.2914 114.493 11.2942C115.866 11.2942 116.695 12.2326 116.695 13.7827V14.1226H113.209V14.1772C113.194 14.3583 113.217 14.5407 113.276 14.7125C113.335 14.8844 113.43 15.0419 113.554 15.175C113.678 15.3082 113.828 15.414 113.995 15.4857C114.162 15.5574 114.342 15.5934 114.524 15.5913C114.757 15.6193 114.993 15.5774 115.202 15.4708C115.411 15.3642 115.584 15.1979 115.698 14.9929H116.636ZM113.209 13.4021H115.703C115.715 13.2364 115.692 13.07 115.636 12.9136C115.581 12.7571 115.493 12.6141 115.378 12.4937C115.264 12.3732 115.125 12.2781 114.972 12.2143C114.819 12.1505 114.654 12.1196 114.487 12.1234C114.319 12.1212 114.152 12.1529 113.996 12.2164C113.84 12.2799 113.698 12.374 113.579 12.4932C113.46 12.6124 113.366 12.7542 113.302 12.9103C113.239 13.0664 113.207 13.2336 113.209 13.4021Z" fill="black"/>
</svg>
