<svg width="16" height="17" viewBox="0 0 16 17" fill="none" xmlns="http://www.w3.org/2000/svg">
<path fill-rule="evenodd" clip-rule="evenodd" d="M3.64484 3.33333L4.3215 14.7067C4.33169 14.8762 4.40618 15.0354 4.52976 15.1518C4.65334 15.2683 4.8167 15.3332 4.9865 15.3333H11.0132C11.183 15.3332 11.3463 15.2683 11.4699 15.1518C11.5935 15.0354 11.668 14.8762 11.6782 14.7067L12.3548 3.33333H3.64484ZM13.3573 3.33333L12.6765 14.7658C12.6512 15.1899 12.465 15.5883 12.1558 15.8796C11.8467 16.1709 11.438 16.3332 11.0132 16.3333H4.9865C4.56171 16.3332 4.15298 16.1709 3.84383 15.8796C3.53468 15.5883 3.34845 15.1899 3.32317 14.7658L2.64234 3.33333H0.916504V2.75C0.916504 2.63949 0.960403 2.53351 1.03854 2.45537C1.11668 2.37723 1.22266 2.33333 1.33317 2.33333H14.6665C14.777 2.33333 14.883 2.37723 14.9611 2.45537C15.0393 2.53351 15.0832 2.63949 15.0832 2.75V3.33333H13.3573ZM9.6665 0.5C9.77701 0.5 9.88299 0.543899 9.96113 0.622039C10.0393 0.700179 10.0832 0.80616 10.0832 0.916667V1.5H5.9165V0.916667C5.9165 0.80616 5.9604 0.700179 6.03854 0.622039C6.11668 0.543899 6.22266 0.5 6.33317 0.5H9.6665ZM5.9165 5.5H6.9165L7.33317 13H6.33317L5.9165 5.5ZM9.08317 5.5H10.0832L9.6665 13H8.6665L9.08317 5.5Z" fill="black"/>
</svg>
