<svg width="32" height="32" viewBox="0 0 32 32" fill="none" xmlns="http://www.w3.org/2000/svg">
<path d="M26 29.3333C26.5305 29.3333 27.0392 29.1226 27.4142 28.7475C27.7893 28.3725 28 27.8637 28 27.3333C28 26.8029 27.7893 26.2942 27.4142 25.9191C27.0392 25.544 26.5305 25.3333 26 25.3333C25.4696 25.3333 24.9609 25.544 24.5858 25.9191C24.2107 26.2942 24 26.8029 24 27.3333C24 27.8637 24.2107 28.3725 24.5858 28.7475C24.9609 29.1226 25.4696 29.3333 26 29.3333ZM12.6667 29.3333C13.1971 29.3333 13.7058 29.1226 14.0809 28.7475C14.456 28.3725 14.6667 27.8637 14.6667 27.3333C14.6667 26.8029 14.456 26.2942 14.0809 25.9191C13.7058 25.544 13.1971 25.3333 12.6667 25.3333C12.1363 25.3333 11.6275 25.544 11.2525 25.9191C10.8774 26.2942 10.6667 26.8029 10.6667 27.3333C10.6667 27.8637 10.8774 28.3725 11.2525 28.7475C11.6275 29.1226 12.1363 29.3333 12.6667 29.3333Z" fill="#242424" stroke="#242424" stroke-width="2" stroke-linecap="round" stroke-linejoin="round"/>
<path d="M6.66669 5.33332H29.3334L26.6667 20M6.66669 5.33332L9.33335 20H26.6667M6.66669 5.33332C6.44402 4.44399 5.33335 2.66666 2.66669 2.66666M26.6667 20H6.97335C4.59469 20 3.33335 21.0413 3.33335 22.6667C3.33335 24.292 4.59469 25.3333 6.97335 25.3333H26" stroke="#242424" stroke-width="2" stroke-linecap="round" stroke-linejoin="round"/>
</svg>
