<svg width="26" height="27" viewBox="0 0 26 27" fill="none" xmlns="http://www.w3.org/2000/svg">
<path d="M4.73333 9.51935H12.2H19.6667L25 22.8608L22.0667 26H1L4.73333 9.51935Z" fill="#7833AE"/>
<path d="M4.73333 9.51935H19.6667M4.73333 9.51935L1 26H22.0667M4.73333 9.51935C4.73333 9.51935 5 9.51935 12.2 9.51935C19.4 9.51935 19.6667 9.51935 19.6667 9.51935M19.6667 9.51935L22.0667 26M19.6667 9.51935L25 22.8608L22.0667 26" stroke="white" stroke-width="0.266667"/>
<path d="M19.239 9.25777H5C5 9.25777 8.27657 0.559662 12.5383 1.01746C16.8 1.47525 19.239 9.25777 19.239 9.25777Z" stroke="#7833AE" stroke-width="0.266667"/>
<path d="M6.01586 18.8529V18.7899L6.07582 18.775C6.1158 18.763 6.14178 18.745 6.15377 18.721C6.16577 18.697 6.17176 18.664 6.17176 18.622C6.17376 18.5081 6.17476 18.3932 6.17476 18.2773C6.17476 18.1593 6.17476 18.0414 6.17476 17.9235V17.8005C6.17476 17.6846 6.17476 17.5687 6.17476 17.4528C6.17476 17.3368 6.17376 17.2209 6.17176 17.105C6.17176 17.063 6.16477 17.031 6.15078 17.009C6.13878 16.985 6.1128 16.9661 6.07282 16.9521L6.01586 16.9341V16.8711H6.73842C7.03024 16.8711 7.24211 16.9261 7.37403 17.036C7.50795 17.1439 7.57491 17.2869 7.57491 17.4648C7.57491 17.5767 7.54692 17.6806 7.49096 17.7766C7.43699 17.8705 7.34705 17.9455 7.22112 18.0014C7.0952 18.0574 6.9253 18.0854 6.71143 18.0854H6.6035C6.6035 18.1693 6.6035 18.2563 6.6035 18.3462C6.6035 18.4342 6.6045 18.5241 6.6065 18.616C6.6065 18.698 6.64347 18.748 6.71743 18.766L6.80737 18.7899V18.8529H6.01586ZM6.6035 17.9984H6.72942C6.82936 17.9984 6.91031 17.9834 6.97227 17.9535C7.03623 17.9215 7.08321 17.8675 7.11319 17.7916C7.14517 17.7156 7.16116 17.6107 7.16116 17.4767C7.16116 17.3428 7.14417 17.2389 7.11019 17.1649C7.07821 17.089 7.02924 17.036 6.96328 17.006C6.89732 16.9741 6.81537 16.9581 6.71743 16.9581H6.6065C6.6045 17.096 6.6035 17.2359 6.6035 17.3778C6.6035 17.5177 6.6035 17.6586 6.6035 17.8005V17.9984ZM7.88836 17.2039C7.8224 17.2039 7.76643 17.1829 7.72046 17.1409C7.67449 17.099 7.6515 17.046 7.6515 16.982C7.6515 16.9161 7.67449 16.8631 7.72046 16.8231C7.76643 16.7812 7.8224 16.7602 7.88836 16.7602C7.95432 16.7602 8.01028 16.7812 8.05625 16.8231C8.10223 16.8631 8.12521 16.9161 8.12521 16.982C8.12521 17.046 8.10223 17.099 8.05625 17.1409C8.01028 17.1829 7.95432 17.2039 7.88836 17.2039ZM7.54357 18.8529V18.7959L7.58854 18.7839C7.62851 18.772 7.6555 18.754 7.66949 18.73C7.68348 18.706 7.69148 18.674 7.69347 18.634V18.0824C7.69347 18.0204 7.69347 17.9634 7.69347 17.9115C7.69347 17.8575 7.69248 17.8025 7.69048 17.7466C7.69048 17.7066 7.68248 17.6756 7.66649 17.6536C7.6525 17.6297 7.62552 17.6137 7.58554 17.6057L7.54357 17.5967V17.5427L8.06825 17.3688L8.10422 17.4018L8.09523 17.8275V18.637C8.09523 18.677 8.10223 18.709 8.11622 18.733C8.13221 18.757 8.15919 18.775 8.19717 18.7869L8.23015 18.7959V18.8529H7.54357ZM8.94795 18.8949C8.81203 18.8949 8.68911 18.8659 8.57918 18.8079C8.46924 18.748 8.3823 18.662 8.31834 18.5501C8.25637 18.4362 8.22539 18.2982 8.22539 18.1363C8.22539 17.9744 8.26037 17.8365 8.33033 17.7226C8.40029 17.6087 8.49323 17.5217 8.60916 17.4618C8.72709 17.3998 8.85601 17.3688 8.99592 17.3688C9.10985 17.3688 9.20679 17.3878 9.28674 17.4258C9.3667 17.4638 9.42766 17.5127 9.46963 17.5727C9.51161 17.6307 9.5326 17.6926 9.5326 17.7586C9.5326 17.8145 9.51561 17.8575 9.48163 17.8875C9.44965 17.9175 9.40767 17.9325 9.3557 17.9325C9.29974 17.9325 9.25377 17.9125 9.21779 17.8725C9.18381 17.8325 9.16382 17.7816 9.15782 17.7196C9.15582 17.6796 9.15582 17.6456 9.15782 17.6177C9.16182 17.5897 9.16182 17.5627 9.15782 17.5367C9.14983 17.5027 9.13584 17.4797 9.11585 17.4678C9.09786 17.4558 9.07188 17.4498 9.0379 17.4498C8.91197 17.4498 8.81503 17.5007 8.74707 17.6027C8.68111 17.7026 8.64813 17.8655 8.64813 18.0914C8.64813 18.2853 8.68511 18.4342 8.75907 18.5381C8.83302 18.642 8.94795 18.694 9.10386 18.694C9.1958 18.694 9.27175 18.677 9.33172 18.643C9.39168 18.6071 9.44665 18.5561 9.49662 18.4901L9.54459 18.5261C9.49462 18.646 9.41767 18.738 9.31373 18.8019C9.21179 18.8639 9.08987 18.8949 8.94795 18.8949ZM9.48366 18.8529V18.7959L9.52864 18.7809C9.59659 18.761 9.63057 18.712 9.63057 18.634V17.081C9.63057 17.041 9.62258 17.011 9.60659 16.991C9.5906 16.9691 9.56262 16.9531 9.52264 16.9431L9.48366 16.9311V16.8741L10.0083 16.7482L10.0473 16.7752L10.0353 17.1979V18.634C10.0353 18.714 10.0693 18.764 10.1373 18.7839L10.1792 18.7959V18.8529H9.48366ZM10.581 18.8529L10.0383 18.1034L10.569 17.6117C10.595 17.5897 10.61 17.5657 10.614 17.5397C10.618 17.5117 10.601 17.4927 10.563 17.4827L10.515 17.4707V17.4138H10.9827V17.4707L10.8958 17.4917C10.8518 17.5037 10.8159 17.5207 10.7879 17.5427C10.7599 17.5627 10.7269 17.5897 10.6889 17.6237L10.3591 17.9325L10.8688 18.631C10.9008 18.673 10.9298 18.706 10.9558 18.73C10.9817 18.752 11.0167 18.771 11.0607 18.7869L11.0907 18.7959V18.8529H10.581ZM11.5524 18.8529V18.7959L11.6003 18.7839C11.6663 18.764 11.6993 18.715 11.6993 18.637V17.7526C11.6973 17.7106 11.6903 17.6786 11.6783 17.6566C11.6663 17.6326 11.6403 17.6167 11.6003 17.6087L11.5524 17.5967V17.5427L12.0381 17.3688L12.0741 17.4018L12.095 17.5877C12.167 17.5237 12.247 17.4717 12.3349 17.4318C12.4248 17.3898 12.5128 17.3688 12.5987 17.3688C12.7307 17.3688 12.8316 17.4048 12.9016 17.4767C12.9735 17.5487 13.0095 17.6586 13.0095 17.8065V18.64C13.0095 18.718 13.0455 18.767 13.1174 18.7869L13.1504 18.7959V18.8529H12.4608V18.7959L12.5058 18.7839C12.5718 18.762 12.6047 18.713 12.6047 18.637V17.7466C12.6047 17.6766 12.5897 17.6257 12.5598 17.5937C12.5298 17.5617 12.4798 17.5457 12.4099 17.5457C12.3119 17.5457 12.21 17.5887 12.104 17.6746V18.64C12.104 18.718 12.139 18.767 12.209 18.7869L12.239 18.7959V18.8529H11.5524ZM14.1306 18.8919L13.6389 18.8529V18.7959L13.6689 18.7899C13.7469 18.772 13.7859 18.722 13.7859 18.64V17.081C13.7859 17.041 13.7779 17.01 13.7619 16.988C13.7479 16.9661 13.7209 16.9501 13.6809 16.9401L13.6419 16.9311V16.8771L14.1546 16.7482L14.1936 16.7752L14.1816 17.1979V17.5127C14.3235 17.4168 14.4764 17.3688 14.6403 17.3688C14.8082 17.3688 14.9471 17.4308 15.0571 17.5547C15.167 17.6766 15.222 17.8655 15.222 18.1214C15.222 18.2912 15.194 18.4342 15.138 18.5501C15.0821 18.664 15.0071 18.75 14.9132 18.8079C14.8192 18.8659 14.7153 18.8949 14.6014 18.8949C14.5254 18.8949 14.4494 18.8849 14.3735 18.8649C14.2995 18.8449 14.2336 18.8139 14.1756 18.772L14.1306 18.8919ZM14.4604 18.763C14.5264 18.763 14.5844 18.744 14.6343 18.706C14.6843 18.668 14.7233 18.6031 14.7513 18.5111C14.7792 18.4192 14.7932 18.2932 14.7932 18.1333C14.7932 17.9734 14.7802 17.8485 14.7543 17.7586C14.7283 17.6686 14.6903 17.6057 14.6403 17.5697C14.5924 17.5337 14.5344 17.5157 14.4664 17.5157C14.3765 17.5157 14.2845 17.5417 14.1906 17.5937V18.688C14.2726 18.738 14.3625 18.763 14.4604 18.763ZM15.7325 18.8949C15.6546 18.8949 15.5836 18.8809 15.5197 18.8529C15.4557 18.8229 15.4047 18.775 15.3668 18.709C15.3308 18.641 15.3138 18.5521 15.3158 18.4422L15.3248 17.6896C15.3248 17.6456 15.3178 17.6137 15.3038 17.5937C15.2898 17.5737 15.2648 17.5597 15.2288 17.5517L15.1929 17.5397V17.4857L15.7055 17.3868L15.7385 17.4198L15.7235 17.8425V18.5231C15.7235 18.5911 15.7415 18.641 15.7775 18.673C15.8155 18.703 15.8625 18.718 15.9184 18.718C15.9764 18.718 16.0284 18.71 16.0743 18.694C16.1223 18.676 16.1713 18.65 16.2212 18.616L16.2302 17.6926C16.2302 17.6466 16.2232 17.6147 16.2092 17.5967C16.1972 17.5787 16.1733 17.5647 16.1373 17.5547L16.1043 17.5457V17.4917L16.605 17.3868L16.638 17.4198L16.629 17.8425V18.628C16.629 18.67 16.634 18.704 16.644 18.73C16.656 18.754 16.681 18.772 16.7189 18.7839L16.7579 18.7959V18.8529L16.2512 18.8829L16.2242 18.694C16.1563 18.752 16.0823 18.7999 16.0024 18.8379C15.9224 18.8759 15.8325 18.8949 15.7325 18.8949ZM16.9494 19.5755C16.8695 19.5755 16.8065 19.5565 16.7605 19.5185C16.7146 19.4805 16.6916 19.4306 16.6916 19.3686C16.6916 19.3126 16.7106 19.2677 16.7485 19.2337C16.7885 19.2017 16.8325 19.1857 16.8805 19.1857C16.9304 19.1857 16.9714 19.1947 17.0034 19.2127C17.0354 19.2307 17.0633 19.2567 17.0873 19.2906L17.1053 19.3146C17.1513 19.3706 17.1943 19.3696 17.2342 19.3116C17.2602 19.2776 17.2852 19.2357 17.3092 19.1857C17.3352 19.1357 17.3632 19.0698 17.3931 18.9878L16.8235 17.6267C16.8095 17.5887 16.7935 17.5597 16.7755 17.5397C16.7575 17.5177 16.7305 17.4997 16.6946 17.4857L16.6436 17.4678V17.4138H17.3841V17.4678L17.3212 17.4857C17.2772 17.4997 17.2532 17.5217 17.2492 17.5517C17.2472 17.5797 17.2542 17.6167 17.2702 17.6626L17.576 18.4601L17.8699 17.6566C17.8858 17.6127 17.8918 17.5757 17.8878 17.5457C17.8838 17.5157 17.8589 17.4957 17.8129 17.4857L17.7469 17.4678V17.4138H18.1937V17.4678L18.1277 17.4887C18.0837 17.5007 18.0517 17.5187 18.0318 17.5427C18.0138 17.5647 17.9968 17.5977 17.9808 17.6416L17.5011 18.9309C17.4211 19.1507 17.3392 19.3126 17.2552 19.4166C17.1733 19.5225 17.0713 19.5755 16.9494 19.5755Z" fill="white"/>
</svg>
