<svg width="156" height="145" viewBox="0 0 156 145" fill="none" xmlns="http://www.w3.org/2000/svg">
<circle cx="69.1879" cy="76.7281" r="63.1879" fill="#E0F3EE" stroke="#009E74" stroke-width="10.084"/>
<path d="M39.8506 74.461L61.6791 95.9101L104.167 54.161" stroke="#009E74" stroke-width="10.084" stroke-linejoin="round"/>
<path d="M152.617 6.72581C150.771 6.72581 149.233 5.19721 149.233 3.3629C149.233 1.52859 150.771 0 152.617 0C154.462 0 156 1.52859 156 3.3629C156 5.19721 154.462 6.72581 152.617 6.72581ZM152.617 1.71202C151.694 1.71202 150.956 2.44575 150.956 3.3629C150.956 4.28006 151.694 5.01378 152.617 5.01378C153.54 5.01378 154.278 4.28006 154.278 3.3629C154.278 2.44575 153.54 1.71202 152.617 1.71202Z" fill="#009E74"/>
<path d="M134.645 11.8823H131.679V8.85565C131.679 8.28816 131.217 7.84677 130.624 7.84677C130.031 7.84677 129.569 8.28816 129.569 8.85565V11.8823H126.603C126.01 11.8823 125.549 12.3236 125.549 12.8911C125.549 13.4586 126.01 13.9 126.603 13.9H129.569V16.9266C129.569 17.4941 130.031 17.9355 130.624 17.9355C131.217 17.9355 131.679 17.4941 131.679 16.9266V13.9H134.645C135.238 13.9 135.699 13.4586 135.699 12.8911C135.699 12.3236 135.238 11.8823 134.645 11.8823Z" fill="#009E74"/>
<path d="M147.402 22.8677H145.424V20.85C145.424 20.4717 145.117 20.1774 144.721 20.1774C144.326 20.1774 144.018 20.4717 144.018 20.85V22.8677H142.041C141.645 22.8677 141.338 23.162 141.338 23.5403C141.338 23.9186 141.645 24.2129 142.041 24.2129H144.018V26.2306C144.018 26.609 144.326 26.9032 144.721 26.9032C145.117 26.9032 145.424 26.609 145.424 26.2306V24.2129H147.402C147.797 24.2129 148.105 23.9186 148.105 23.5403C148.105 23.162 147.797 22.8677 147.402 22.8677Z" fill="#009E74"/>
</svg>
